<?xml version="1.0" standalone="no"?>
<!DOCTYPE svg PUBLIC "-//W3C//DTD SVG 20010904//EN"
 "http://www.w3.org/TR/2001/REC-SVG-20010904/DTD/svg10.dtd">
<svg version="1.0" xmlns="http://www.w3.org/2000/svg"
 width="1500.000000pt" height="1500.000000pt" viewBox="0 0 1500.000000 1500.000000"
 preserveAspectRatio="xMidYMid meet">
<metadata>
Created by potrace 1.11, written by Peter Selinger 2001-2013
</metadata>
<g transform="translate(0.000000,1500.000000) scale(0.100000,-0.100000)"
fill="#000000" stroke="none">
<path d="M0 7500 l0 -7500 7500 0 7500 0 0 7500 0 7500 -7500 0 -7500 0 0
-7500z m6297 4525 c107 -53 233 -274 301 -524 24 -90 26 -110 26 -316 0 -205
-2 -226 -26 -315 -52 -192 -120 -332 -233 -482 -215 -284 -216 -698 -3 -1010
65 -94 72 -160 28 -248 -37 -72 -104 -110 -193 -110 -78 0 -131 31 -192 113
-153 202 -235 464 -235 753 0 291 78 531 250 769 132 183 174 312 173 535 0
105 -5 153 -22 215 -25 95 -69 190 -115 255 -71 98 -85 153 -62 233 38 130
181 192 303 132z m1288 6 c70 -32 137 -116 214 -268 91 -181 131 -359 131
-576 0 -168 -18 -281 -66 -427 -42 -127 -93 -223 -185 -351 -80 -112 -121
-195 -148 -301 -61 -237 -20 -503 107 -691 31 -45 62 -100 69 -122 29 -81 -8
-185 -85 -239 -35 -25 -55 -31 -111 -34 -105 -6 -152 24 -238 153 -155 232
-226 518 -202 812 21 259 101 471 255 678 95 128 142 247 164 413 26 206 -29
434 -144 596 -53 75 -71 128 -62 189 21 139 175 226 301 168z m1319 -6 c26
-12 57 -44 95 -94 230 -311 297 -745 175 -1148 -33 -112 -110 -260 -189 -368
-37 -49 -82 -121 -100 -160 -128 -268 -99 -635 70 -865 82 -111 86 -206 13
-295 -63 -76 -177 -99 -268 -52 -84 42 -200 225 -264 417 -48 143 -67 260 -67
417 0 297 75 534 244 770 137 190 180 319 180 538 -1 204 -39 333 -147 490
-25 37 -51 85 -56 107 -37 135 79 275 220 266 30 -3 72 -13 94 -23z m1571
-3458 c201 -60 344 -180 431 -362 52 -109 64 -182 64 -409 0 -185 1 -198 18
-191 45 17 289 75 387 91 151 25 435 25 559 1 508 -102 783 -496 763 -1092 -5
-166 -25 -261 -82 -396 -68 -163 -168 -303 -324 -459 -164 -163 -355 -302
-610 -445 -443 -247 -1103 -483 -1710 -610 l-124 -26 -126 -122 c-70 -67 -173
-160 -229 -207 l-103 -85 1368 -5 1368 -5 38 -23 c64 -40 107 -115 107 -186 0
-87 -7 -96 -318 -409 -198 -199 -332 -325 -402 -378 -173 -131 -390 -228 -615
-275 -87 -18 -201 -19 -3645 -19 -3400 0 -3559 1 -3645 18 -205 42 -403 124
-576 238 -75 50 -158 126 -413 378 -211 209 -325 330 -337 356 -45 97 -6 218
88 277 l38 23 1366 5 1367 5 -115 95 c-720 596 -1224 1464 -1397 2410 -53 291
-60 392 -61 865 l0 440 27 73 c73 200 210 336 415 415 l58 22 1060 5 c583 3
2003 5 3155 5 1983 0 2098 -1 2155 -18z"/>
<path d="M4175 8135 c-22 -8 -59 -34 -81 -58 -64 -67 -68 -99 -61 -497 7 -360
14 -452 52 -686 86 -519 269 -984 560 -1424 204 -308 425 -556 710 -796 146
-123 398 -296 556 -383 l76 -41 1299 0 1300 0 144 86 c287 172 475 318 721
564 191 190 330 357 462 557 324 489 517 1010 594 1608 14 114 18 215 18 542
l0 401 -30 44 c-17 23 -51 54 -75 68 l-45 25 -3080 2 c-2638 2 -3086 0 -3120
-12z"/>
<path d="M11475 7265 c-165 -25 -496 -111 -516 -133 -4 -4 -14 -70 -23 -147
-67 -558 -261 -1116 -559 -1613 -45 -75 -83 -140 -85 -144 -9 -19 442 127 668
217 80 31 240 103 355 160 535 263 840 547 926 861 19 69 21 96 16 229 -5 164
-19 232 -68 333 -54 112 -154 190 -290 228 -76 22 -312 27 -424 9z"/>
<path d="M3050 3813 c0 -15 158 -164 231 -218 132 -97 274 -160 430 -190 76
-14 412 -16 3571 -15 2267 0 3506 4 3540 10 244 46 439 151 618 334 l74 76
-3364 0 c-1851 0 -3755 3 -4232 7 -591 4 -868 3 -868 -4z"/>
</g>
</svg>
